<?xml version="1.0" encoding="UTF-8"?>
<svg width="311.78" height="99.241" version="1.1" viewBox="0 0 311.78 99.241" xmlns="http://www.w3.org/2000/svg"><g transform="translate(-.1332 -24.29)"><g><g transform="translate(0,-4)"><g stroke-width=".27429"><path d="m114.17 115.27c1.1692-0.0514 3.0823-0.0514 4.2514 0s0.21257 0.0935-2.1257 0.0935c-2.3383 0-3.2949-0.0421-2.1257-0.0935zm153.04-1.4e-4c1.3124-0.0502 3.5341-0.0504 4.9372-5.5e-4 1.4031 0.0499 0.3293 0.0909-2.3861 0.0912-2.7154 2.8e-4 -3.8634-0.0405-2.551-0.0907zm-138.5-86.126c1.32-0.05028 3.48-0.05028 4.8 0s0.24 0.09142-2.4 0.09142-3.72-0.04114-2.4-0.09142zm70.478-0.27408c1.3124-0.05017 3.5341-0.0504 4.9372-5.48e-4 1.4031 0.04988 0.3293 0.09093-2.3861 0.09122-2.7154 2.75e-4 -3.8634-0.04052-2.551-0.09069zm70.78-0.27449c1.32-0.05028 3.48-0.05028 4.8 0s0.24 0.09142-2.4 0.09142-3.72-0.04114-2.4-0.09142z" fill="#e2e2e2"/><path d="m157.37 85.921c1.5463-0.04889 4.0766-0.04889 5.6229 0 1.5463 0.04889 0.28114 0.08889-2.8114 0.08889s-4.3577-0.04-2.8114-0.08889zm-139.34-52.938c7.4297-0.04059 19.587-0.04059 27.017 0 7.4297 0.04059 1.3509 0.0738-13.509 0.0738s-20.938-0.03321-13.509-0.0738z" fill="#ddd"/><path d="m233.55 82.903 2e-3 -32.297 7.5436-0.02411-7.4042 0.17672-0.1428 64.442 2e-3 -32.297zm-90.855-53.759c1.32-0.05028 3.48-0.05028 4.8 0s0.24 0.09142-2.4 0.09142-3.72-0.04114-2.4-0.09142zm70.779-0.27448c1.3274-0.05039 3.4257-0.05013 4.6629 5.48e-4 1.2372 0.0507 0.1511 0.09193-2.4135 0.09161-2.5646-2.74e-4 -3.5768-0.0418-2.2494-0.09219zm70.478-0.27409c1.32-0.05028 3.48-0.05028 4.8 0s0.24 0.09142-2.4 0.09142-3.72-0.04114-2.4-0.09142z" fill="#d9d9d9"/><path d="m18.994 28.32c8.1086-0.04036 21.377-0.04036 29.486 0 8.1086 0.04036 1.4743 0.07339-14.743 0.07339s-22.851-0.03302-14.743-0.07339z" fill="#d6d6d6"/><path d="m147.07 116.29c-16.641-2.2737-17.649-25.144-1.2872-29.197 3.1375-0.77707 5.5216-0.95579 12.823-0.96119l7.3371-0.0054v-1.3138c0-10.206-14.094-14.304-26.949-7.8355l-1.3029 0.65565v-6.7714l2.1257-0.73589c14.125-4.8898 26.787-2.2288 31.079 6.5312 2.2565 4.6056 2.4407 6.4077 2.4473 23.938l5e-3 14.606h-7.4057v-3.4286c0-3.8708-0.0504-3.9465-1.3517-2.0286-3.2886 4.8468-10.43 7.515-17.521 6.5462zm8.3014-6.4462c6.3578-1.656 10.036-6.9288 10.49-15.038l0.16668-2.9775-7.654 0.12545c-12.926 0.21186-16.054 1.7876-16.749 8.4369-0.72573 6.9435 5.8966 11.497 13.746 9.4527zm44.72 6.5613c-4.4267-0.39719-9.4601-1.3656-12.823-2.4672l-1.3029-0.42678v-3.7102c0-2.8634 0.0782-3.6767 0.34286-3.5636 15.321 6.5489 27.36 5.1213 27.36-3.2443 0-4.2913-1.9217-5.7219-10.515-7.8284-6.9518-1.704-7.5849-1.8949-9.9787-3.0085-9.3642-4.3562-9.2366-17.593 0.21514-22.321 5.155-2.579 16.306-2.7472 23.481-0.35424l1.8718 0.62418 0.0765 3.4495 0.0765 3.4495-2.324-0.93316c-10.365-4.1618-21.63-2.4486-22.903 3.4831-1.0214 4.7628 0.91202 6.2795 11.359 8.9107 12.416 3.1271 15.815 5.8535 16.248 13.034 0.58066 9.6262-8.5366 16.041-21.185 14.906zm-87.909-39.2v-37.996l-23.922 0.1512-6.7611-10.011 22.267-0.0062c12.247-0.0034 64.726-0.18572 116.62-0.40516s87.496-0.40178 88.891-0.40525l2.5371-0.0063v9.0022l-2.2628 0.15096c-1.2446 0.08303-14.567 0.28328-39.383 0.44502-53.563 0.34909-104.51 0.73226-130.77 0.98339l-18.994 0.18171v75.911h-8.2286zm121.51 5.767v-32.229h7.402l0.0704 19.114 0.0704 19.114 22.766-20.096 4.5943-0.01484c2.5268-0.0082 4.5943 0.03043 4.5943 0.08576s-5.4309 4.8939-12.069 10.752c-6.6377 5.8585-12.069 10.737-12.069 10.842 0 0.10468 5.6777 5.6564 12.617 12.337 6.9394 6.6808 12.617 12.186 12.617 12.234 0 0.0482-2.1291 0.0807-4.7314 0.0724l-4.7314-0.0151-23.589-22.733-0.0716 11.382-0.0716 11.382h-7.3997zm-188.69 28.046c-0.28122-0.64115-0.96935-2.1532-1.5292-3.36-6.1987-13.363-8.0789-17.925-13.169-31.954-2.1621-5.9589-4.1118-11.26-4.3327-11.779l-0.40152-0.94493 5.6507-1.8546c3.1079-1.0201 5.6937-1.8117 5.7463-1.7591 0.05255 0.05255 1.2665 3.2226 2.6976 7.0445 4.9904 13.327 11.819 29.914 12.315 29.914 0.9912 0 13.979-33.439 23.161-59.631l2.3775-6.7819 8.8543 13.086-0.49536 1.6101c-2.3066 7.4975-16.079 41.381-23.733 58.387-1.1541 2.5646-2.554 5.6811-3.1109 6.9257l-1.0125 2.2629h-12.506z" fill="#193254"/><path d="m94.486 95.314c-1.4e-5 -15.237 0.03314-21.51 0.07367-13.941 0.04053 7.5691 0.04054 20.035 2.4e-5 27.703-0.04052 7.6675-0.07368 1.4746-0.07369-13.762z" fill="#c4c4c4"/><path d="m4.5153 122.81c-0.071714-0.18857-0.098324-20.462-0.059134-45.051l0.071255-44.709 0.067742 44.913 0.067742 44.913 89.829 0.1404-44.923 0.0678c-35.736 0.0539-44.95-2e-3 -45.053-0.27511z" fill="#bdbdbd"/><path d="m3.3915 127.28c-1.2506-0.30121-2.4409-1.2413-2.8752-2.2707-0.31753-0.75264-0.37908-8.4028-0.37908-47.116 0-51.775-0.17872-47.129 1.8715-48.657l0.77434-0.57724 60.16-0.14434-4.37 4.3958h-54.184v90.24h90.24v-55.626l4.2514-3.9704 0.08063 29.181c0.09538 34.517 0.20143 32.865-2.1942 34.173-0.95849 0.52331-91.253 0.88223-93.375 0.37117z" fill="#1f93cc"/></g><text transform="translate(.1332 28.29)" fill="#000000" font-family="sans-serif" font-size="192px" style="font-variant-caps:normal;font-variant-east-asian:normal;font-variant-ligatures:normal;font-variant-numeric:normal;line-height:1.25;shape-inside:url(#rect1029);white-space:pre" xml:space="preserve"/></g><path d="m285.06 88.189v-23.255h7.0918l0.24096 7.5884 1.5811-2.1204c3.1877-4.2751 8.235-6.4517 14.422-6.2194l3.2714 0.12281 0.24108 7.2602-2.0061-0.62511c-1.3652-0.4254-2.9897-0.55702-5.0847-0.41198-6.9136 0.47863-10.981 4.4842-12.19 12.004-0.24081 1.498-0.43926 8.616-0.441 15.818l-3e-3 13.094h-7.1232z" fill="#1f93cc"/></g></g></svg>
